<?xml version="1.0" encoding="UTF-8"?>
<svg width="192" height="192" version="1.1" viewBox="0 0 192 192" xmlns="http://www.w3.org/2000/svg">
 <defs>
  <linearGradient id="a" x1="29.5" x2="162.5" y1="29.5" y2="162.5" gradientUnits="userSpaceOnUse">
   <stop stop-color="#4e8850" offset="0"/>
   <stop stop-color="#2e5230" offset="1"/>
  </linearGradient>
 </defs>
 <rect width="192" height="192" rx="42" fill="url(#a)" stroke-width="1.3"/>
 <g transform="matrix(6.4 0 0 6.4 32 32)" fill="#fff">
  <path d="m0 0v20h20v-20zm10 2a8 8 0 0 1 8 8 8 8 0 0 1-8 8 8 8 0 0 1-8-8 8 8 0 0 1 8-8z"/>
  <path d="m10 4a6 6 0 0 0-6 6 6 6 0 0 0 6 6 6 6 0 0 0 6-6 6 6 0 0 0-6-6zm-1 1h2v6h-2zm0 8h2v2h-2z"/>
 </g>
</svg>