<?xml version="1.0" encoding="UTF-8"?>
<svg width="192" height="192" version="1.1" viewBox="0 0 192 192" xmlns="http://www.w3.org/2000/svg">
 <g>
  <circle cx="96" cy="96" r="96" fill="#4caf50" fill-opacity=".8"/>
  <g transform="matrix(2.7429 0 0 2.7429 -8.5959 -8.5959)" fill="none" stroke="#fff" stroke-linecap="round" stroke-linejoin="round" stroke-width="2.5">
   <path d="m38 34v-6c0-9.941-8.059-18-18-18s-18 8.059-18 18v6"/>
   <path d="m2 34 4-4"/>
   <path d="m38 34-4-4"/>
   <path d="m20 42c2.21 0 4-1.79 4-4h-8c0 2.21 1.79 4 4 4z"/>
   <path d="m18 10c0-1.1046 0.89543-2 2-2s2 0.89543 2 2"/>
   <path d="m28 18s-2.5-6-8-6-8 6-8 6"/>
  </g>
 </g>
</svg>